# xmcd
#
# Track frame offsets:
#	150
#	23697
#	42124
#	66263
#	84845
#	104007
#	124629
#	146324
#	167266
#	189100
#	212701
#	236232
#	254092
#	275145
#	297951
#	320498
#	341347
#
# Disc length: 4792 seconds
#
# Revision: 0
# Processed by: cddbd v1.5.2PL0 Copyright (c) Steve Scherf et al.
# Submitted via: audiograbber 1.83.01
#
DISCID=f412b611
DTITLE=XMIX - Chartbusters Vol 56
DYEAR=2010
DGENRE=TOP 40
TTITLE0=Usher ft Will.i.Am - Omg (130 BPM)
TTITLE1=Kat Deluna ft Akon - Push Push (130 BPM)
TTITLE2=Timbaland ft Katy Perry - If We Ever Meet Again (126 BPM)
TTITLE3=Jaicko - Fast Forward (FFWD) (125 BPM)
TTITLE4=Sean Kingston ft Justin Bieber - Eenie Meenie (121 BPM)
TTITLE5=Chino y Nacho - Mi Nina Bonita (120 BPM)
TTITLE6=Kenny Chesney - Ain't Back Yet (107 BPM)
TTITLE7=B.O.B. ft Bruno Mars  - Nothin On You (104 BPM)
TTITLE8=Kelly Clarkson - All I Ever Wanted (100 BPM)
TTITLE9=Lady Gaga - Alejandro (99 BPM)
TTITLE10=The Script - Breakeven (94 BPM)
TTITLE11=Daddy Yankee - Descontrol (93 BPM)
TTITLE12=Trey Songz ft Fabolous - Say Aah (93 BPM)
TTITLE13=Spose - Im Awesome (92 BPM)
TTITLE14=Rihanna - Rude Boy (87 BPM)
TTITLE15=Crash Kings - Mountain Man (78 BPM)
TTITLE16=Blake Shelton ft Trace Adkins - Hillbilly Bone (72 BPM)
EXTD=
EXTT0=
EXTT1=
EXTT2=
EXTT3=
EXTT4=
EXTT5=
EXTT6=
EXTT7=
EXTT8=
EXTT9=
EXTT10=
EXTT11=
EXTT12=
EXTT13=
EXTT14=
EXTT15=
EXTT16=
PLAYORDER=
